<svg xmlns="http://www.w3.org/2000/svg" xmlns:xlink="http://www.w3.org/1999/xlink" width="100" zoomAndPan="magnify" viewBox="0 0 75 74.999997" height="100" preserveAspectRatio="xMidYMid meet" version="1.0"><defs><g/><clipPath id="d486531096"><path d="M 2 42 L 73 42 L 73 42.589844 L 2 42.589844 Z M 27.628906 42.589844 L 36.898438 42.589844 L 36.898438 45 L 27.628906 45 Z M 42.902344 42.589844 L 73 42.589844 L 73 45 L 42.902344 45 Z M 2 42.589844 L 20.660156 42.589844 L 20.660156 45 L 2 45 Z M 2 42.589844 " clip-rule="nonzero"/></clipPath></defs><g clip-path="url(#d486531096)"><path fill="#967f71" d="M 2.605469 42.964844 L 72.378906 42.964844 L 72.378906 44.464844 L 2.605469 44.464844 Z M 2.605469 42.964844 " fill-opacity="1" fill-rule="nonzero"/></g><g fill="#967f71" fill-opacity="1"><g transform="translate(2.604555, 41.465846)"><g><path d="M 21.59375 0.546875 C 21.757812 0.253906 21.878906 -0.03125 21.953125 -0.3125 C 22.023438 -0.59375 22.082031 -0.867188 22.125 -1.140625 C 22.144531 -1.296875 22.171875 -1.453125 22.203125 -1.609375 C 22.910156 -4.953125 23.734375 -8.257812 24.671875 -11.53125 C 25.617188 -14.8125 26.726562 -18.046875 28 -21.234375 C 28.039062 -21.316406 28.082031 -21.40625 28.125 -21.5 C 28.175781 -21.65625 28.238281 -21.8125 28.3125 -21.96875 C 28.476562 -22.320312 28.753906 -22.503906 29.140625 -22.515625 C 29.640625 -22.515625 29.816406 -22.265625 29.671875 -21.765625 C 27.285156 -15.398438 25.382812 -8.898438 23.96875 -2.265625 C 23.457031 0.203125 22.988281 2.671875 22.5625 5.140625 C 22.375 6.179688 22.179688 7.222656 21.984375 8.265625 C 21.890625 8.816406 21.796875 9.375 21.703125 9.9375 C 21.628906 10.289062 21.5625 10.648438 21.5 11.015625 C 21.476562 11.160156 21.441406 11.304688 21.390625 11.453125 C 21.296875 11.742188 21.101562 11.929688 20.8125 12.015625 C 20.519531 12.109375 20.238281 12.066406 19.96875 11.890625 C 19.800781 11.773438 19.707031 11.609375 19.6875 11.390625 C 19.675781 11.085938 19.675781 10.78125 19.6875 10.46875 C 19.875 6.050781 19.96875 1.628906 19.96875 -2.796875 C 19.96875 -3.265625 19.96875 -3.757812 19.96875 -4.28125 C 19.988281 -5.664062 19.988281 -7.148438 19.96875 -8.734375 C 19.945312 -10.316406 19.875 -11.910156 19.75 -13.515625 C 19.625 -15.128906 19.40625 -16.664062 19.09375 -18.125 C 18.789062 -19.582031 18.351562 -20.859375 17.78125 -21.953125 C 17.519531 -22.472656 17.203125 -22.957031 16.828125 -23.40625 C 16.066406 -24.257812 15.101562 -24.640625 13.9375 -24.546875 C 12.78125 -24.453125 11.535156 -24.003906 10.203125 -23.203125 C 8.878906 -22.398438 7.582031 -21.347656 6.3125 -20.046875 C 5.039062 -18.753906 3.914062 -17.320312 2.9375 -15.75 C 1.96875 -14.1875 1.25 -12.597656 0.78125 -10.984375 C 0.320312 -9.378906 0.234375 -7.859375 0.515625 -6.421875 C 0.796875 -4.984375 1.566406 -3.742188 2.828125 -2.703125 C 3.617188 -2.046875 4.46875 -1.515625 5.375 -1.109375 C 6.28125 -0.703125 7.257812 -0.46875 8.3125 -0.40625 C 8.507812 -0.394531 8.691406 -0.34375 8.859375 -0.25 C 8.898438 -0.21875 8.9375 -0.175781 8.96875 -0.125 C 9.007812 -0.0820312 9.03125 -0.0351562 9.03125 0.015625 C 9.03125 0.0664062 9.007812 0.117188 8.96875 0.171875 C 8.9375 0.222656 8.898438 0.265625 8.859375 0.296875 C 8.722656 0.367188 8.578125 0.410156 8.421875 0.421875 C 7.847656 0.492188 7.269531 0.46875 6.6875 0.34375 C 5.113281 0 3.664062 -0.632812 2.34375 -1.5625 C 0.875 -2.601562 -0.113281 -3.832031 -0.625 -5.25 C -1.144531 -6.675781 -1.273438 -8.191406 -1.015625 -9.796875 C -0.765625 -11.410156 -0.222656 -13.019531 0.609375 -14.625 C 1.453125 -16.238281 2.476562 -17.753906 3.6875 -19.171875 C 4.894531 -20.597656 6.203125 -21.832031 7.609375 -22.875 C 9.023438 -23.914062 10.429688 -24.675781 11.828125 -25.15625 C 13.222656 -25.644531 14.523438 -25.753906 15.734375 -25.484375 C 16.941406 -25.210938 17.953125 -24.46875 18.765625 -23.25 C 19.359375 -22.351562 19.820312 -21.378906 20.15625 -20.328125 C 20.675781 -18.660156 21.039062 -16.820312 21.25 -14.8125 C 21.46875 -12.8125 21.59375 -10.765625 21.625 -8.671875 C 21.664062 -6.578125 21.664062 -4.546875 21.625 -2.578125 C 21.601562 -1.484375 21.59375 -0.441406 21.59375 0.546875 Z M 21.59375 0.546875 "/></g></g></g><g fill="#967f71" fill-opacity="1"><g transform="translate(29.439757, 41.465846)"><g><path d="M 1.9375 -3.5625 C 1.925781 -3.5625 1.914062 -3.5625 1.90625 -3.5625 C 1.90625 -3.5625 1.910156 -3.5625 1.921875 -3.5625 C 1.921875 -3.5625 1.925781 -3.5625 1.9375 -3.5625 Z M 8.328125 -4.484375 C 8.390625 -4.523438 8.492188 -4.570312 8.640625 -4.625 C 8.785156 -4.6875 8.925781 -4.722656 9.0625 -4.734375 C 9.195312 -4.742188 9.289062 -4.691406 9.34375 -4.578125 C 9.382812 -4.503906 9.394531 -4.429688 9.375 -4.359375 C 9.351562 -4.285156 9.316406 -4.222656 9.265625 -4.171875 C 8.929688 -3.804688 8.410156 -3.4375 7.703125 -3.0625 C 7.003906 -2.6875 6.273438 -2.351562 5.515625 -2.0625 C 4.765625 -1.78125 4.140625 -1.597656 3.640625 -1.515625 C 3.078125 -1.410156 2.5 -1.382812 1.90625 -1.4375 C 1.1875 -1.53125 0.648438 -1.828125 0.296875 -2.328125 C -0.0546875 -2.835938 -0.203125 -3.410156 -0.140625 -4.046875 C -0.0351562 -4.753906 0.285156 -5.316406 0.828125 -5.734375 C 1.367188 -6.148438 1.988281 -6.300781 2.6875 -6.1875 C 3.113281 -6.132812 3.5 -5.976562 3.84375 -5.71875 C 4.21875 -5.414062 4.382812 -5.066406 4.34375 -4.671875 C 4.3125 -4.273438 4.078125 -3.972656 3.640625 -3.765625 C 3.421875 -3.648438 3.171875 -3.578125 2.890625 -3.546875 C 2.617188 -3.523438 2.300781 -3.53125 1.9375 -3.5625 C 1.9375 -3.5625 1.925781 -3.5625 1.90625 -3.5625 C 1.894531 -3.5625 1.867188 -3.5625 1.828125 -3.5625 C 1.785156 -3.5625 1.742188 -3.5625 1.703125 -3.5625 C 1.597656 -3.5625 1.523438 -3.53125 1.484375 -3.46875 C 1.453125 -3.40625 1.453125 -3.332031 1.484375 -3.25 C 1.679688 -2.75 2.070312 -2.484375 2.65625 -2.453125 C 3.25 -2.429688 3.914062 -2.539062 4.65625 -2.78125 C 5.40625 -3.03125 6.113281 -3.316406 6.78125 -3.640625 C 7.445312 -3.972656 7.960938 -4.253906 8.328125 -4.484375 Z M 1.921875 -5.0625 C 1.828125 -5 1.765625 -4.921875 1.734375 -4.828125 C 1.703125 -4.742188 1.679688 -4.671875 1.671875 -4.609375 C 1.671875 -4.546875 1.679688 -4.507812 1.703125 -4.5 C 1.722656 -4.488281 1.796875 -4.472656 1.921875 -4.453125 C 2.054688 -4.429688 2.203125 -4.425781 2.359375 -4.4375 C 2.515625 -4.457031 2.640625 -4.492188 2.734375 -4.546875 C 2.835938 -4.597656 2.875 -4.691406 2.84375 -4.828125 C 2.78125 -5.015625 2.648438 -5.128906 2.453125 -5.171875 C 2.265625 -5.222656 2.085938 -5.1875 1.921875 -5.0625 Z M 1.921875 -5.0625 "/></g></g></g><g fill="#967f71" fill-opacity="1"><g transform="translate(37.862219, 41.465846)"><g><path d="M 8.046875 -4.5625 C 8.273438 -4.519531 8.398438 -4.394531 8.421875 -4.1875 C 8.441406 -3.988281 8.335938 -3.78125 8.109375 -3.5625 C 7.878906 -3.363281 7.65625 -3.175781 7.4375 -3 C 6.90625 -2.5625 6.332031 -2.09375 5.71875 -1.59375 C 5.238281 -1.207031 4.796875 -0.78125 4.390625 -0.3125 C 4.097656 0.0078125 3.878906 0.367188 3.734375 0.765625 C 3.566406 1.285156 3.296875 1.753906 2.921875 2.171875 C 2.710938 2.410156 2.46875 2.554688 2.1875 2.609375 C 1.914062 2.671875 1.632812 2.660156 1.34375 2.578125 C 1.195312 2.535156 1.085938 2.457031 1.015625 2.34375 C 0.941406 2.226562 0.925781 2.097656 0.96875 1.953125 C 1.019531 1.722656 1.101562 1.507812 1.21875 1.3125 C 1.394531 1.0625 1.582031 0.8125 1.78125 0.5625 C 1.800781 0.539062 1.820312 0.519531 1.84375 0.5 C 2.539062 -0.375 2.582031 -1.265625 1.96875 -2.171875 C 1.8125 -2.378906 1.644531 -2.578125 1.46875 -2.765625 C 1.414062 -2.828125 1.351562 -2.894531 1.28125 -2.96875 C 1.175781 -3.09375 1.0625 -3.21875 0.9375 -3.34375 C 0.71875 -3.582031 0.5 -3.835938 0.28125 -4.109375 C -0.320312 -4.953125 -0.28125 -5.757812 0.40625 -6.53125 C 0.988281 -7.226562 1.722656 -7.710938 2.609375 -7.984375 C 3.148438 -8.140625 3.675781 -8.085938 4.1875 -7.828125 C 4.6875 -7.566406 4.914062 -7.15625 4.875 -6.59375 C 4.820312 -6.21875 4.632812 -5.992188 4.3125 -5.921875 C 3.894531 -5.847656 3.597656 -5.976562 3.421875 -6.3125 C 3.367188 -6.445312 3.332031 -6.5625 3.3125 -6.65625 C 3.28125 -6.757812 3.242188 -6.835938 3.203125 -6.890625 C 3.160156 -6.941406 3.09375 -6.957031 3 -6.9375 C 2.914062 -6.914062 2.773438 -6.847656 2.578125 -6.734375 C 2.265625 -6.546875 1.992188 -6.304688 1.765625 -6.015625 C 1.398438 -5.578125 1.378906 -5.109375 1.703125 -4.609375 C 1.816406 -4.441406 1.9375 -4.296875 2.0625 -4.171875 C 2.207031 -4.003906 2.347656 -3.84375 2.484375 -3.6875 C 2.753906 -3.414062 3.007812 -3.140625 3.25 -2.859375 C 3.488281 -2.578125 3.695312 -2.273438 3.875 -1.953125 C 4.007812 -1.984375 4.242188 -2.113281 4.578125 -2.34375 C 4.910156 -2.570312 5.269531 -2.832031 5.65625 -3.125 C 6.050781 -3.425781 6.410156 -3.703125 6.734375 -3.953125 C 7.003906 -4.160156 7.191406 -4.304688 7.296875 -4.390625 C 7.390625 -4.453125 7.503906 -4.5 7.640625 -4.53125 C 7.773438 -4.5625 7.910156 -4.570312 8.046875 -4.5625 Z M 8.046875 -4.5625 "/></g></g></g><g fill="#967f71" fill-opacity="1"><g transform="translate(45.054132, 41.465846)"><g><path d="M 7.21875 -4.5 C 7.351562 -4.613281 7.453125 -4.648438 7.515625 -4.609375 C 7.585938 -4.578125 7.632812 -4.507812 7.65625 -4.40625 C 7.6875 -4.3125 7.703125 -4.21875 7.703125 -4.125 C 7.691406 -3.9375 7.65625 -3.757812 7.59375 -3.59375 C 7.53125 -3.425781 7.488281 -3.316406 7.46875 -3.265625 C 7.445312 -3.253906 7.4375 -3.25 7.4375 -3.25 C 7.257812 -2.78125 6.972656 -2.316406 6.578125 -1.859375 C 6.179688 -1.398438 5.710938 -1.03125 5.171875 -0.75 C 4.640625 -0.476562 4.070312 -0.359375 3.46875 -0.390625 C 2.625 -0.484375 1.953125 -0.804688 1.453125 -1.359375 C 0.953125 -1.921875 0.570312 -2.582031 0.3125 -3.34375 C 0.0625 -4.113281 -0.101562 -4.875 -0.1875 -5.625 C -0.40625 -7.46875 -0.472656 -9.328125 -0.390625 -11.203125 C -0.367188 -11.660156 -0.351562 -12.117188 -0.34375 -12.578125 C -0.34375 -12.734375 -0.34375 -12.890625 -0.34375 -13.046875 C -0.34375 -13.347656 -0.476562 -13.5 -0.75 -13.5 C -1.050781 -13.5 -1.347656 -13.503906 -1.640625 -13.515625 C -1.960938 -13.515625 -2.289062 -13.515625 -2.625 -13.515625 C -2.664062 -13.515625 -2.710938 -13.515625 -2.765625 -13.515625 C -2.992188 -13.484375 -3.207031 -13.519531 -3.40625 -13.625 C -3.5 -13.664062 -3.578125 -13.722656 -3.640625 -13.796875 C -3.703125 -13.867188 -3.734375 -13.960938 -3.734375 -14.078125 C -3.710938 -14.179688 -3.664062 -14.265625 -3.59375 -14.328125 C -3.519531 -14.390625 -3.429688 -14.421875 -3.328125 -14.421875 C -2.941406 -14.429688 -2.550781 -14.4375 -2.15625 -14.4375 C -1.925781 -14.4375 -1.691406 -14.4375 -1.453125 -14.4375 C -1.148438 -14.4375 -0.84375 -14.453125 -0.53125 -14.484375 C -0.363281 -14.492188 -0.257812 -14.59375 -0.21875 -14.78125 C -0.195312 -15 -0.175781 -15.222656 -0.15625 -15.453125 C -0.101562 -16.191406 -0.0507812 -16.925781 0 -17.65625 C 0.0390625 -18.164062 0.0820312 -18.671875 0.125 -19.171875 C 0.125 -19.179688 0.125 -19.191406 0.125 -19.203125 C 0.125 -19.304688 0.128906 -19.410156 0.140625 -19.515625 C 0.242188 -19.941406 0.53125 -20.140625 1 -20.109375 C 1.40625 -20.078125 1.628906 -19.859375 1.671875 -19.453125 C 1.679688 -19.179688 1.679688 -18.90625 1.671875 -18.625 C 1.671875 -18.519531 1.671875 -18.40625 1.671875 -18.28125 C 1.671875 -18.28125 1.664062 -18.28125 1.65625 -18.28125 C 1.632812 -17.976562 1.617188 -17.671875 1.609375 -17.359375 C 1.546875 -16.660156 1.503906 -15.957031 1.484375 -15.25 C 1.460938 -14.882812 1.492188 -14.65625 1.578125 -14.5625 C 1.671875 -14.46875 1.921875 -14.425781 2.328125 -14.4375 C 3.078125 -14.425781 3.828125 -14.421875 4.578125 -14.421875 C 5.109375 -14.421875 5.644531 -14.410156 6.1875 -14.390625 C 6.238281 -14.390625 6.289062 -14.390625 6.34375 -14.390625 C 6.46875 -14.410156 6.59375 -14.40625 6.71875 -14.375 C 6.84375 -14.351562 6.960938 -14.3125 7.078125 -14.25 C 7.117188 -14.21875 7.15625 -14.179688 7.1875 -14.140625 C 7.21875 -14.097656 7.242188 -14.039062 7.265625 -13.96875 C 7.265625 -13.90625 7.242188 -13.851562 7.203125 -13.8125 C 7.160156 -13.769531 7.117188 -13.738281 7.078125 -13.71875 C 6.835938 -13.582031 6.582031 -13.523438 6.3125 -13.546875 C 6.28125 -13.546875 6.238281 -13.546875 6.1875 -13.546875 C 5.382812 -13.546875 4.585938 -13.539062 3.796875 -13.53125 C 3.347656 -13.519531 2.898438 -13.515625 2.453125 -13.515625 C 2.421875 -13.515625 2.394531 -13.515625 2.375 -13.515625 C 2.164062 -13.515625 1.957031 -13.507812 1.75 -13.5 C 1.53125 -13.46875 1.40625 -13.34375 1.375 -13.125 C 1.34375 -13.007812 1.328125 -12.890625 1.328125 -12.765625 C 1.273438 -11.585938 1.25 -10.40625 1.25 -9.21875 C 1.257812 -8.039062 1.335938 -6.867188 1.484375 -5.703125 C 1.609375 -4.765625 1.851562 -3.867188 2.21875 -3.015625 C 2.425781 -2.546875 2.671875 -2.175781 2.953125 -1.90625 C 3.242188 -1.644531 3.566406 -1.535156 3.921875 -1.578125 C 4.597656 -1.679688 5.117188 -1.914062 5.484375 -2.28125 C 5.847656 -2.65625 6.160156 -3.054688 6.421875 -3.484375 C 6.660156 -3.898438 6.925781 -4.238281 7.21875 -4.5 Z M 7.21875 -4.5 "/></g></g></g><g fill="#967f71" fill-opacity="1"><g transform="translate(51.717363, 41.465846)"><g><path d="M 6.640625 -4.5625 C 6.710938 -4.519531 6.742188 -4.445312 6.734375 -4.34375 C 6.734375 -4.25 6.707031 -4.160156 6.65625 -4.078125 C 6.238281 -3.460938 5.789062 -2.914062 5.3125 -2.4375 C 4.84375 -1.96875 4.320312 -1.617188 3.75 -1.390625 C 3.1875 -1.160156 2.539062 -1.09375 1.8125 -1.1875 C 1.3125 -1.269531 0.9375 -1.4375 0.6875 -1.6875 C 0.4375 -1.945312 0.253906 -2.3125 0.140625 -2.78125 C -0.0664062 -3.519531 -0.113281 -4.273438 0 -5.046875 C 0.09375 -5.492188 0.375 -5.726562 0.84375 -5.75 C 1.257812 -5.75 1.484375 -5.5625 1.515625 -5.1875 C 1.535156 -4.875 1.535156 -4.566406 1.515625 -4.265625 C 1.515625 -4.222656 1.515625 -4.179688 1.515625 -4.140625 C 1.492188 -3.316406 1.628906 -2.75 1.921875 -2.4375 C 2.222656 -2.132812 2.609375 -2.054688 3.078125 -2.203125 C 3.554688 -2.347656 4.0625 -2.679688 4.59375 -3.203125 C 4.664062 -3.265625 4.75 -3.351562 4.84375 -3.46875 C 4.945312 -3.582031 5.054688 -3.695312 5.171875 -3.8125 C 5.347656 -3.988281 5.488281 -4.140625 5.59375 -4.265625 C 5.925781 -4.597656 6.273438 -4.695312 6.640625 -4.5625 Z M 0.71875 -7.09375 C 0.351562 -7.113281 0.140625 -7.3125 0.078125 -7.6875 C 0.0351562 -7.976562 0.0820312 -8.257812 0.21875 -8.53125 C 0.34375 -8.757812 0.539062 -8.914062 0.8125 -9 C 1.082031 -9.09375 1.34375 -9.070312 1.59375 -8.9375 C 1.675781 -8.882812 1.738281 -8.8125 1.78125 -8.71875 C 1.820312 -8.632812 1.835938 -8.566406 1.828125 -8.515625 C 1.816406 -7.554688 1.445312 -7.082031 0.71875 -7.09375 Z M 0.71875 -7.09375 "/></g></g></g><g fill="#967f71" fill-opacity="1"><g transform="translate(57.304997, 41.465846)"><g><path d="M 4.828125 -6.171875 C 4.941406 -6.140625 5.023438 -6.085938 5.078125 -6.015625 C 5.140625 -5.953125 5.164062 -5.863281 5.15625 -5.75 C 5.101562 -5.488281 5.035156 -5.226562 4.953125 -4.96875 C 4.796875 -4.4375 4.59375 -3.914062 4.34375 -3.40625 C 4.09375 -2.90625 3.773438 -2.441406 3.390625 -2.015625 C 3.265625 -1.878906 3.140625 -1.753906 3.015625 -1.640625 C 2.890625 -1.535156 2.742188 -1.453125 2.578125 -1.390625 C 2.171875 -1.273438 1.785156 -1.265625 1.421875 -1.359375 C 1.066406 -1.453125 0.769531 -1.738281 0.53125 -2.21875 C 0.125 -3.132812 -0.125 -4.101562 -0.21875 -5.125 C -0.25 -5.488281 -0.128906 -5.703125 0.140625 -5.765625 C 0.367188 -5.835938 0.578125 -5.84375 0.765625 -5.78125 C 0.960938 -5.726562 1.097656 -5.625 1.171875 -5.46875 C 1.273438 -5.1875 1.351562 -4.898438 1.40625 -4.609375 C 1.425781 -4.523438 1.445312 -4.441406 1.46875 -4.359375 C 1.488281 -4.234375 1.515625 -4.109375 1.546875 -3.984375 C 1.628906 -3.640625 1.710938 -3.351562 1.796875 -3.125 C 1.878906 -2.894531 2 -2.800781 2.15625 -2.84375 C 2.320312 -2.894531 2.539062 -3.15625 2.8125 -3.625 C 3.195312 -4.289062 3.523438 -4.988281 3.796875 -5.71875 C 3.992188 -6.175781 4.335938 -6.328125 4.828125 -6.171875 Z M 4.828125 -6.171875 "/></g></g></g><g fill="#967f71" fill-opacity="1"><g transform="translate(62.765019, 41.465846)"><g><path d="M 10.09375 -4.765625 C 10.320312 -4.804688 10.460938 -4.800781 10.515625 -4.75 C 10.566406 -4.695312 10.578125 -4.609375 10.546875 -4.484375 C 10.535156 -4.273438 10.445312 -4.085938 10.28125 -3.921875 C 10.125 -3.765625 9.921875 -3.625 9.671875 -3.5 C 9.066406 -3.21875 8.472656 -3.050781 7.890625 -3 C 7.316406 -2.957031 6.71875 -3.007812 6.09375 -3.15625 C 5.820312 -3.238281 5.585938 -3.242188 5.390625 -3.171875 C 5.191406 -3.097656 4.992188 -2.875 4.796875 -2.5 C 4.296875 -1.539062 3.503906 -1 2.421875 -0.875 C 1.609375 -0.789062 1.003906 -0.941406 0.609375 -1.328125 C 0.222656 -1.722656 -0.0195312 -2.21875 -0.125 -2.8125 C -0.238281 -3.4375 -0.207031 -4.019531 -0.03125 -4.5625 C 0.132812 -5.101562 0.421875 -5.609375 0.828125 -6.078125 C 1.128906 -6.410156 1.507812 -6.546875 1.96875 -6.484375 C 2.175781 -6.484375 2.34375 -6.40625 2.46875 -6.25 C 2.539062 -6.144531 2.550781 -6.050781 2.5 -5.96875 C 2.457031 -5.894531 2.398438 -5.820312 2.328125 -5.75 C 1.671875 -5.0625 1.363281 -4.25 1.40625 -3.3125 C 1.414062 -2.875 1.539062 -2.472656 1.78125 -2.109375 C 2 -1.804688 2.269531 -1.765625 2.59375 -1.984375 C 2.894531 -2.222656 3.160156 -2.554688 3.390625 -2.984375 C 3.628906 -3.410156 3.765625 -3.847656 3.796875 -4.296875 C 3.828125 -4.742188 3.703125 -5.140625 3.421875 -5.484375 C 3.273438 -5.617188 3.140625 -5.710938 3.015625 -5.765625 C 2.941406 -5.804688 2.878906 -5.84375 2.828125 -5.875 C 2.773438 -5.90625 2.75 -5.953125 2.75 -6.015625 C 2.726562 -6.316406 2.835938 -6.535156 3.078125 -6.671875 C 3.328125 -6.816406 3.625 -6.890625 3.96875 -6.890625 C 4.320312 -6.890625 4.644531 -6.816406 4.9375 -6.671875 C 5.238281 -6.535156 5.4375 -6.335938 5.53125 -6.078125 C 5.632812 -5.722656 5.660156 -5.375 5.609375 -5.03125 C 5.597656 -4.726562 5.722656 -4.5 5.984375 -4.34375 C 6.554688 -3.945312 7.179688 -3.804688 7.859375 -3.921875 C 8.140625 -3.972656 8.394531 -4.046875 8.625 -4.140625 C 8.863281 -4.234375 9.09375 -4.335938 9.3125 -4.453125 C 9.59375 -4.597656 9.851562 -4.703125 10.09375 -4.765625 Z M 10.09375 -4.765625 "/></g></g></g></svg>